<svg xmlns="http://www.w3.org/2000/svg" width="1200" height="2196" viewBox="0 0 1200 2196" role="img" aria-labelledby="title desc">
  <title id="title">rarpar RAR relative speed benchmark</title>
  <desc id="desc">Measured RAR workloads on linux-arm64-v2 across 1 execution lane(s). Relative speed is reference elapsed time divided by rarpar elapsed time.</desc>
  <style>
    .bg { fill: #ffffff; } text { font-family: Arial, sans-serif; fill: #172033; }
    .title { font-size: 28px; font-weight: 600; } .subtitle { font-size: 14px; fill: #667085; }
    .column { font-size: 12px; font-weight: 600; fill: #667085; letter-spacing: .04em; text-transform: uppercase; }
    .machine { font-size: 15px; font-weight: 600; } .workload { font-size: 13px; font-weight: 500; }
    .timing { font-size: 12px; fill: #667085; } .tick { font-size: 11px; fill: #667085; } .ratio { font-size: 12px; font-weight: 600; }
    .grid { stroke: #d7dce5; stroke-width: 1; } .parity { stroke: #172033; stroke-width: 1.5; } .rule { stroke: #e7eaf0; stroke-width: 1; }
    .cpu { fill: #2563eb; } .gpu { fill: #7c3aed; } .slower { fill: #d97706; }
    @media (prefers-color-scheme: dark) { .bg { fill: #0d1117; } text { fill: #e6edf3; } .subtitle, .column, .timing, .tick { fill: #9ca7b5; } .grid { stroke: #30363d; } .parity { stroke: #e6edf3; } .rule { stroke: #21262d; } .cpu { fill: #58a6ff; } .gpu { fill: #bc8cff; } .slower { fill: #f2a65a; } }
  </style>
  <metadata>schema=1; report_sha256=a97fc3a3b616fdfd33a6e84717cf10f85985da203494f39d46da8ee732c0763c; corpus_digest=59f46fa58f651958ad8fc035d98a0cf0ce69345b740a1e9cc5fc52ab58929ada; plan_id=plan-e4222071b3f06c00; candidate_sha256=53622ea3f930386411011537836123f8772f2e1a392c207a10513bb58352854c; reference_sha256=34175fab5673365e7ff988f13ffc878945cb2da824ae3c567bf9b381312e7dc6; lane=cpu; collector=wall-clock; par2_placement=canonical</metadata>
  <rect class="bg" width="1200" height="2196"/>
  <text class="title" x="48" y="48">rarpar RAR relative speed benchmark</text>
  <text class="subtitle" x="48" y="75">Lower elapsed time is better. Bars show the faster side's multiplier on a symmetric log scale.</text>
  <g aria-label="Legend"><rect class="slower" x="570" y="84" width="14" height="14" rx="2"/><text class="subtitle" x="592" y="96">UnRAR faster</text><rect class="cpu" x="890" y="84" width="14" height="14" rx="2"/><text class="subtitle" x="912" y="96">rarpar / CPU</text></g>
  <text class="column" x="48" y="112">Workload / elapsed time</text>
  <text class="column" x="620" y="112">Relative speed</text>
  <g aria-label="Relative speed axis">
    <line class="grid" x1="620.0" y1="121" x2="620.0" y2="2138"/><text class="tick" x="620.0" y="2156" text-anchor="middle">8x</text>
    <line class="grid" x1="708.3" y1="121" x2="708.3" y2="2138"/><text class="tick" x="708.3" y="2156" text-anchor="middle">4x</text>
    <line class="grid" x1="796.7" y1="121" x2="796.7" y2="2138"/><text class="tick" x="796.7" y="2156" text-anchor="middle">2x</text>
    <line class="parity" x1="885.0" y1="121" x2="885.0" y2="2138"/><text class="tick" x="885.0" y="2156" text-anchor="middle">1x parity</text>
    <line class="grid" x1="973.3" y1="121" x2="973.3" y2="2138"/><text class="tick" x="973.3" y="2156" text-anchor="middle">2x</text>
    <line class="grid" x1="1061.7" y1="121" x2="1061.7" y2="2138"/><text class="tick" x="1061.7" y="2156" text-anchor="middle">4x</text>
    <line class="grid" x1="1150.0" y1="121" x2="1150.0" y2="2138"/><text class="tick" x="1150.0" y="2156" text-anchor="middle">8x</text>
    <text class="tick" x="752.5" y="2176" text-anchor="middle">UnRAR faster</text>
    <text class="tick" x="1017.5" y="2176" text-anchor="middle">rarpar faster</text>
  </g>
  <g aria-label="RAR benchmarks">
    <text class="machine" x="48" y="140">linux-arm64-v2 / arm64 / cpu</text>
    <text class="workload" x="48" y="168">RAR5 (7.23 writer) header-encrypted stored multi-volume media</text>
    <text class="timing" x="48" y="184">387.6 ms -> 28.9 ms</text>
    <rect class="cpu" x="885.0" y="160" width="265.0" height="14" rx="2"/>
    <text class="ratio" x="1158.0" y="172">13.4x</text>
    <line class="rule" x1="48" y1="194" x2="1150" y2="194"/>
    <text class="workload" x="48" y="222">RAR5 (7.23 writer) data-encrypted stored multi-volume media: th...</text>
    <text class="timing" x="48" y="238">323.5 ms -> 28.8 ms</text>
    <rect class="cpu" x="885.0" y="214" width="265.0" height="14" rx="2"/>
    <text class="ratio" x="1158.0" y="226">11.2x</text>
    <line class="rule" x1="48" y1="248" x2="1150" y2="248"/>
    <text class="workload" x="48" y="276">RAR5 (5.00 writer) header-encrypted extraction</text>
    <text class="timing" x="48" y="292">112.3 ms -> 12.7 ms</text>
    <rect class="cpu" x="885.0" y="268" width="265.0" height="14" rx="2"/>
    <text class="ratio" x="1158.0" y="280">8.9x</text>
    <line class="rule" x1="48" y1="302" x2="1150" y2="302"/>
    <text class="workload" x="48" y="330">RAR5 (7.23 writer) header-encrypted extraction</text>
    <text class="timing" x="48" y="346">112.4 ms -> 13.1 ms</text>
    <rect class="cpu" x="885.0" y="322" width="265.0" height="14" rx="2"/>
    <text class="ratio" x="1158.0" y="334">8.6x</text>
    <line class="rule" x1="48" y1="356" x2="1150" y2="356"/>
    <text class="workload" x="48" y="384">RAR5 (7.23 writer) data-encrypted extraction</text>
    <text class="timing" x="48" y="400">50.1 ms -> 12.7 ms</text>
    <rect class="cpu" x="885.0" y="376" width="174.9" height="14" rx="2"/>
    <text class="ratio" x="1067.9" y="388">3.9x</text>
    <line class="rule" x1="48" y1="410" x2="1150" y2="410"/>
    <text class="workload" x="48" y="438">RAR5 (5.00 writer) data-encrypted extraction</text>
    <text class="timing" x="48" y="454">50.1 ms -> 12.8 ms</text>
    <rect class="cpu" x="885.0" y="430" width="173.8" height="14" rx="2"/>
    <text class="ratio" x="1066.8" y="442">3.9x</text>
    <line class="rule" x1="48" y1="464" x2="1150" y2="464"/>
    <text class="workload" x="48" y="492">RAR5 (7.23 writer) recovery-volume restore and extraction</text>
    <text class="timing" x="48" y="508">84.6 ms -> 27.2 ms</text>
    <rect class="cpu" x="885.0" y="484" width="144.5" height="14" rx="2"/>
    <text class="ratio" x="1037.5" y="496">3.1x</text>
    <line class="rule" x1="48" y1="518" x2="1150" y2="518"/>
    <text class="workload" x="48" y="546">RAR3 store multi-volume extraction</text>
    <text class="timing" x="48" y="562">10.7 ms -> 3.5 ms</text>
    <rect class="cpu" x="885.0" y="538" width="141.7" height="14" rx="2"/>
    <text class="ratio" x="1034.7" y="550">3.0x</text>
    <line class="rule" x1="48" y1="572" x2="1150" y2="572"/>
    <text class="workload" x="48" y="600">RAR5 (5.00 writer) recovery-volume restore and extraction</text>
    <text class="timing" x="48" y="616">82.4 ms -> 28.2 ms</text>
    <rect class="cpu" x="885.0" y="592" width="136.6" height="14" rx="2"/>
    <text class="ratio" x="1029.6" y="604">2.9x</text>
    <line class="rule" x1="48" y1="626" x2="1150" y2="626"/>
    <text class="workload" x="48" y="654">RAR4 stored multi-volume media, 64 MiB</text>
    <text class="timing" x="48" y="670">40.1 ms -> 15.7 ms</text>
    <rect class="cpu" x="885.0" y="646" width="119.2" height="14" rx="2"/>
    <text class="ratio" x="1012.2" y="658">2.5x</text>
    <line class="rule" x1="48" y1="680" x2="1150" y2="680"/>
    <text class="workload" x="48" y="708">RAR5 BLAKE2sp checksums over stored multi-volume media, largest...</text>
    <text class="timing" x="48" y="724">73.6 ms -> 28.9 ms</text>
    <rect class="cpu" x="885.0" y="700" width="119.1" height="14" rx="2"/>
    <text class="ratio" x="1012.1" y="712">2.5x</text>
    <line class="rule" x1="48" y1="734" x2="1150" y2="734"/>
    <text class="workload" x="48" y="762">RAR5 (5.00 writer) stored multi-volume media, 64 MiB</text>
    <text class="timing" x="48" y="778">40.5 ms -> 16.2 ms</text>
    <rect class="cpu" x="885.0" y="754" width="116.5" height="14" rx="2"/>
    <text class="ratio" x="1009.5" y="766">2.5x</text>
    <line class="rule" x1="48" y1="788" x2="1150" y2="788"/>
    <text class="workload" x="48" y="816">RAR5 (7.23 writer) store single-volume extraction</text>
    <text class="timing" x="48" y="832">7.7 ms -> 3.1 ms</text>
    <rect class="cpu" x="885.0" y="808" width="116.5" height="14" rx="2"/>
    <text class="ratio" x="1009.5" y="820">2.5x</text>
    <line class="rule" x1="48" y1="842" x2="1150" y2="842"/>
    <text class="workload" x="48" y="870">RAR5 BLAKE2sp checksums over compressed machine code, largest m...</text>
    <text class="timing" x="48" y="886">182.7 ms -> 79.6 ms</text>
    <rect class="cpu" x="885.0" y="862" width="105.9" height="14" rx="2"/>
    <text class="ratio" x="998.9" y="874">2.3x</text>
    <line class="rule" x1="48" y1="896" x2="1150" y2="896"/>
    <text class="workload" x="48" y="924">RAR5 (7.23 writer) stored multi-volume media, 256 MiB: the sing...</text>
    <text class="timing" x="48" y="940">121.0 ms -> 55.4 ms</text>
    <rect class="cpu" x="885.0" y="916" width="99.5" height="14" rx="2"/>
    <text class="ratio" x="992.5" y="928">2.2x</text>
    <line class="rule" x1="48" y1="950" x2="1150" y2="950"/>
    <text class="workload" x="48" y="978">RAR5 (7.23 writer) compressed real machine code, 32 MiB</text>
    <text class="timing" x="48" y="994">135.0 ms -> 71.3 ms</text>
    <rect class="cpu" x="885.0" y="970" width="81.3" height="14" rx="2"/>
    <text class="ratio" x="974.3" y="982">1.9x</text>
    <line class="rule" x1="48" y1="1004" x2="1150" y2="1004"/>
    <text class="workload" x="48" y="1032">RAR3 header-encrypted multi-volume extraction</text>
    <text class="timing" x="48" y="1048">78.7 ms -> 43.6 ms</text>
    <rect class="cpu" x="885.0" y="1024" width="75.1" height="14" rx="2"/>
    <text class="ratio" x="968.1" y="1036">1.8x</text>
    <line class="rule" x1="48" y1="1058" x2="1150" y2="1058"/>
    <text class="workload" x="48" y="1086">RAR4 header-encrypted multi-volume extraction</text>
    <text class="timing" x="48" y="1102">78.8 ms -> 43.8 ms</text>
    <rect class="cpu" x="885.0" y="1078" width="74.9" height="14" rx="2"/>
    <text class="ratio" x="967.9" y="1090">1.8x</text>
    <line class="rule" x1="48" y1="1112" x2="1150" y2="1112"/>
    <text class="workload" x="48" y="1140">RAR5 (5.00 writer) normal single-volume text extraction</text>
    <text class="timing" x="48" y="1156">15.6 ms -> 8.9 ms</text>
    <rect class="cpu" x="885.0" y="1132" width="71.4" height="14" rx="2"/>
    <text class="ratio" x="964.4" y="1144">1.8x</text>
    <line class="rule" x1="48" y1="1166" x2="1150" y2="1166"/>
    <text class="workload" x="48" y="1194">RAR5 (6.24 writer) solid multi-volume text extraction</text>
    <text class="timing" x="48" y="1210">15.1 ms -> 9.0 ms</text>
    <rect class="cpu" x="885.0" y="1186" width="66.8" height="14" rx="2"/>
    <text class="ratio" x="959.8" y="1198">1.7x</text>
    <line class="rule" x1="48" y1="1220" x2="1150" y2="1220"/>
    <text class="workload" x="48" y="1248">RAR5 (7.23 writer) solid multi-volume text extraction</text>
    <text class="timing" x="48" y="1264">14.9 ms -> 8.9 ms</text>
    <rect class="cpu" x="885.0" y="1240" width="66.3" height="14" rx="2"/>
    <text class="ratio" x="959.3" y="1252">1.7x</text>
    <line class="rule" x1="48" y1="1274" x2="1150" y2="1274"/>
    <text class="workload" x="48" y="1302">RAR5 (7.23 writer) normal single-volume text extraction</text>
    <text class="timing" x="48" y="1318">15.7 ms -> 9.3 ms</text>
    <rect class="cpu" x="885.0" y="1294" width="66.1" height="14" rx="2"/>
    <text class="ratio" x="959.1" y="1306">1.7x</text>
    <line class="rule" x1="48" y1="1328" x2="1150" y2="1328"/>
    <text class="workload" x="48" y="1356">RAR3 data-encrypted multi-volume extraction</text>
    <text class="timing" x="48" y="1372">49.3 ms -> 29.5 ms</text>
    <rect class="cpu" x="885.0" y="1348" width="65.4" height="14" rx="2"/>
    <text class="ratio" x="958.4" y="1360">1.7x</text>
    <line class="rule" x1="48" y1="1382" x2="1150" y2="1382"/>
    <text class="workload" x="48" y="1410">RAR4 data-encrypted multi-volume extraction</text>
    <text class="timing" x="48" y="1426">49.1 ms -> 29.6 ms</text>
    <rect class="cpu" x="885.0" y="1402" width="64.6" height="14" rx="2"/>
    <text class="ratio" x="957.6" y="1414">1.7x</text>
    <line class="rule" x1="48" y1="1436" x2="1150" y2="1436"/>
    <text class="workload" x="48" y="1464">RAR5 (5.00 writer) solid multi-volume text extraction</text>
    <text class="timing" x="48" y="1480">15.3 ms -> 9.4 ms</text>
    <rect class="cpu" x="885.0" y="1456" width="62.8" height="14" rx="2"/>
    <text class="ratio" x="955.8" y="1468">1.6x</text>
    <line class="rule" x1="48" y1="1490" x2="1150" y2="1490"/>
    <text class="workload" x="48" y="1518">RAR5 (7.23 writer) compressed real source text, 5 MiB</text>
    <text class="timing" x="48" y="1534">14.4 ms -> 9.3 ms</text>
    <rect class="cpu" x="885.0" y="1510" width="55.2" height="14" rx="2"/>
    <text class="ratio" x="948.2" y="1522">1.5x</text>
    <line class="rule" x1="48" y1="1544" x2="1150" y2="1544"/>
    <text class="workload" x="48" y="1572">RAR5 BLAKE2sp checksums over compressed source text, members be...</text>
    <text class="timing" x="48" y="1588">18.3 ms -> 12.6 ms</text>
    <rect class="cpu" x="885.0" y="1564" width="48.1" height="14" rx="2"/>
    <text class="ratio" x="941.1" y="1576">1.5x</text>
    <line class="rule" x1="48" y1="1598" x2="1150" y2="1598"/>
    <text class="workload" x="48" y="1626">RAR5 (7.23 writer) compressed release-shaped mix of media, sour...</text>
    <text class="timing" x="48" y="1642">111.6 ms -> 76.6 ms</text>
    <rect class="cpu" x="885.0" y="1618" width="48.0" height="14" rx="2"/>
    <text class="ratio" x="941.0" y="1630">1.5x</text>
    <line class="rule" x1="48" y1="1652" x2="1150" y2="1652"/>
    <text class="workload" x="48" y="1680">RAR4 PPMd classic multi-volume text extraction</text>
    <text class="timing" x="48" y="1696">73.1 ms -> 59.9 ms</text>
    <rect class="cpu" x="885.0" y="1672" width="25.5" height="14" rx="2"/>
    <text class="ratio" x="918.5" y="1684">1.2x</text>
    <line class="rule" x1="48" y1="1706" x2="1150" y2="1706"/>
    <text class="workload" x="48" y="1734">RAR3 normal single-volume text extraction</text>
    <text class="timing" x="48" y="1750">17.3 ms -> 15.2 ms</text>
    <rect class="cpu" x="885.0" y="1726" width="16.5" height="14" rx="2"/>
    <text class="ratio" x="909.5" y="1738">1.1x</text>
    <line class="rule" x1="48" y1="1760" x2="1150" y2="1760"/>
    <text class="workload" x="48" y="1788">RAR3 solid multi-volume text extraction</text>
    <text class="timing" x="48" y="1804">16.9 ms -> 15.0 ms</text>
    <rect class="cpu" x="885.0" y="1780" width="15.2" height="14" rx="2"/>
    <text class="ratio" x="908.2" y="1792">1.1x</text>
    <line class="rule" x1="48" y1="1814" x2="1150" y2="1814"/>
    <text class="workload" x="48" y="1842">RAR4 PPMd order-16 32 MiB text extraction</text>
    <text class="timing" x="48" y="1858">12.84 s -> 11.41 s</text>
    <rect class="cpu" x="885.0" y="1834" width="15.0" height="14" rx="2"/>
    <text class="ratio" x="908.0" y="1846">1.1x</text>
    <line class="rule" x1="48" y1="1868" x2="1150" y2="1868"/>
    <text class="workload" x="48" y="1896">RAR4 solid multi-volume text extraction</text>
    <text class="timing" x="48" y="1912">17.2 ms -> 15.3 ms</text>
    <rect class="cpu" x="885.0" y="1888" width="14.5" height="14" rx="2"/>
    <text class="ratio" x="907.5" y="1900">1.1x</text>
    <line class="rule" x1="48" y1="1922" x2="1150" y2="1922"/>
    <text class="workload" x="48" y="1950">RAR4 normal single-volume text extraction</text>
    <text class="timing" x="48" y="1966">17.1 ms -> 15.4 ms</text>
    <rect class="cpu" x="885.0" y="1942" width="13.1" height="14" rx="2"/>
    <text class="ratio" x="906.1" y="1954">1.1x</text>
    <line class="rule" x1="48" y1="1976" x2="1150" y2="1976"/>
    <text class="workload" x="48" y="2004">RAR4 compressed real source text, 5 MiB</text>
    <text class="timing" x="48" y="2020">16.7 ms -> 15.4 ms</text>
    <rect class="cpu" x="885.0" y="1996" width="10.5" height="14" rx="2"/>
    <text class="ratio" x="903.5" y="2008">1.1x</text>
    <line class="rule" x1="48" y1="2030" x2="1150" y2="2030"/>
    <text class="workload" x="48" y="2058">RAR4 PPMd model-restart text extraction</text>
    <text class="timing" x="48" y="2074">326.9 ms -> 315.0 ms</text>
    <rect class="cpu" x="885.0" y="2050" width="4.7" height="14" rx="2"/>
    <text class="ratio" x="897.7" y="2062">1.0x</text>
    <line class="rule" x1="48" y1="2084" x2="1150" y2="2084"/>
    <text class="workload" x="48" y="2112">RAR4 PPMd solid multi-member text extraction</text>
    <text class="timing" x="48" y="2128">252.5 ms -> 337.8 ms</text>
    <rect class="slower" x="847.9" y="2104" width="37.1" height="14" rx="2"/>
    <text class="ratio" x="839.9" y="2116" text-anchor="end">1.3x</text>
    <line class="rule" x1="48" y1="2138" x2="1150" y2="2138"/>
  </g>
</svg>
