<svg xmlns="http://www.w3.org/2000/svg" width="1200" height="1548" viewBox="0 0 1200 1548" role="img" aria-labelledby="title desc">
  <title id="title">rarpar RAR relative speed benchmark</title>
  <desc id="desc">Measured RAR workloads on windows-ryzen5-3600 across 1 execution lane(s). Relative speed is reference elapsed time divided by rarpar elapsed time.</desc>
  <style>
    .bg { fill: #ffffff; } text { font-family: Arial, sans-serif; fill: #172033; }
    .title { font-size: 28px; font-weight: 600; } .subtitle { font-size: 14px; fill: #667085; }
    .column { font-size: 12px; font-weight: 600; fill: #667085; letter-spacing: .04em; text-transform: uppercase; }
    .machine { font-size: 15px; font-weight: 600; } .workload { font-size: 13px; font-weight: 500; }
    .timing { font-size: 12px; fill: #667085; } .tick { font-size: 11px; fill: #667085; } .ratio { font-size: 12px; font-weight: 600; }
    .grid { stroke: #d7dce5; stroke-width: 1; } .parity { stroke: #172033; stroke-width: 1.5; } .rule { stroke: #e7eaf0; stroke-width: 1; }
    .cpu { fill: #2563eb; } .gpu { fill: #7c3aed; } .slower { fill: #d97706; }
    @media (prefers-color-scheme: dark) { .bg { fill: #0d1117; } text { fill: #e6edf3; } .subtitle, .column, .timing, .tick { fill: #9ca7b5; } .grid { stroke: #30363d; } .parity { stroke: #e6edf3; } .rule { stroke: #21262d; } .cpu { fill: #58a6ff; } .gpu { fill: #bc8cff; } .slower { fill: #f2a65a; } }
  </style>
  <metadata>schema=1; report_sha256=83051f3f451ff948bf0431dbb157b44a1919cfd693fba1948b235da40ae724e3; corpus_digest=409ddc16a491552f5d31ab6cd70175142da6862ca50a392b878e65f1ca5ff4e0; plan_id=plan-1cfbf7b8f9a2e53f; candidate_sha256=ca1e834687ce395416865a9af70608537f5d867b1531c7bcc61a84a6e9de8a41; reference_sha256=0d3715001790f0fd18d3e850f947b540530b2d2deb9a2e6a9e84f2ed7b234235; lane=cpu; collector=wall-clock; par2_placement=canonical</metadata>
  <rect class="bg" width="1200" height="1548"/>
  <text class="title" x="48" y="48">rarpar RAR relative speed benchmark</text>
  <text class="subtitle" x="48" y="75">Lower elapsed time is better. Bars show the faster side's multiplier on a symmetric log scale.</text>
  <g aria-label="Legend"><rect class="slower" x="570" y="84" width="14" height="14" rx="2"/><text class="subtitle" x="592" y="96">UnRAR faster</text><rect class="cpu" x="890" y="84" width="14" height="14" rx="2"/><text class="subtitle" x="912" y="96">rarpar / CPU</text></g>
  <text class="column" x="48" y="112">Workload / elapsed time</text>
  <text class="column" x="620" y="112">Relative speed</text>
  <g aria-label="Relative speed axis">
    <line class="grid" x1="620.0" y1="121" x2="620.0" y2="1490"/><text class="tick" x="620.0" y="1508" text-anchor="middle">8x</text>
    <line class="grid" x1="708.3" y1="121" x2="708.3" y2="1490"/><text class="tick" x="708.3" y="1508" text-anchor="middle">4x</text>
    <line class="grid" x1="796.7" y1="121" x2="796.7" y2="1490"/><text class="tick" x="796.7" y="1508" text-anchor="middle">2x</text>
    <line class="parity" x1="885.0" y1="121" x2="885.0" y2="1490"/><text class="tick" x="885.0" y="1508" text-anchor="middle">1x parity</text>
    <line class="grid" x1="973.3" y1="121" x2="973.3" y2="1490"/><text class="tick" x="973.3" y="1508" text-anchor="middle">2x</text>
    <line class="grid" x1="1061.7" y1="121" x2="1061.7" y2="1490"/><text class="tick" x="1061.7" y="1508" text-anchor="middle">4x</text>
    <line class="grid" x1="1150.0" y1="121" x2="1150.0" y2="1490"/><text class="tick" x="1150.0" y="1508" text-anchor="middle">8x</text>
    <text class="tick" x="752.5" y="1528" text-anchor="middle">UnRAR faster</text>
    <text class="tick" x="1017.5" y="1528" text-anchor="middle">rarpar faster</text>
  </g>
  <g aria-label="RAR benchmarks">
    <text class="machine" x="48" y="140">windows-ryzen5-3600 / amd64 / cpu</text>
    <text class="workload" x="48" y="168">RAR5 (5.00 writer) header-encrypted extraction</text>
    <text class="timing" x="48" y="184">103.7 ms -> 34.1 ms</text>
    <rect class="cpu" x="885.0" y="160" width="141.7" height="14" rx="2"/>
    <text class="ratio" x="1034.7" y="172">3.0x</text>
    <line class="rule" x1="48" y1="194" x2="1150" y2="194"/>
    <text class="workload" x="48" y="222">RAR5 (7.23 writer) header-encrypted extraction</text>
    <text class="timing" x="48" y="238">102.7 ms -> 34.2 ms</text>
    <rect class="cpu" x="885.0" y="214" width="140.2" height="14" rx="2"/>
    <text class="ratio" x="1033.2" y="226">3.0x</text>
    <line class="rule" x1="48" y1="248" x2="1150" y2="248"/>
    <text class="workload" x="48" y="276">RAR5 (5.00 writer) recovery-volume restore and extraction</text>
    <text class="timing" x="48" y="292">146.3 ms -> 51.2 ms</text>
    <rect class="cpu" x="885.0" y="268" width="133.7" height="14" rx="2"/>
    <text class="ratio" x="1026.7" y="280">2.9x</text>
    <line class="rule" x1="48" y1="302" x2="1150" y2="302"/>
    <text class="workload" x="48" y="330">RAR5 (7.23 writer) recovery-volume restore and extraction</text>
    <text class="timing" x="48" y="346">145.5 ms -> 51.6 ms</text>
    <rect class="cpu" x="885.0" y="322" width="132.1" height="14" rx="2"/>
    <text class="ratio" x="1025.1" y="334">2.8x</text>
    <line class="rule" x1="48" y1="356" x2="1150" y2="356"/>
    <text class="workload" x="48" y="384">RAR4 header-encrypted multi-volume extraction</text>
    <text class="timing" x="48" y="400">106.6 ms -> 59.0 ms</text>
    <rect class="cpu" x="885.0" y="376" width="75.5" height="14" rx="2"/>
    <text class="ratio" x="968.5" y="388">1.8x</text>
    <line class="rule" x1="48" y1="410" x2="1150" y2="410"/>
    <text class="workload" x="48" y="438">RAR5 (7.23 writer) data-encrypted extraction</text>
    <text class="timing" x="48" y="454">61.3 ms -> 34.0 ms</text>
    <rect class="cpu" x="885.0" y="430" width="75.1" height="14" rx="2"/>
    <text class="ratio" x="968.1" y="442">1.8x</text>
    <line class="rule" x1="48" y1="464" x2="1150" y2="464"/>
    <text class="workload" x="48" y="492">RAR3 store multi-volume extraction</text>
    <text class="timing" x="48" y="508">34.6 ms -> 19.2 ms</text>
    <rect class="cpu" x="885.0" y="484" width="75.0" height="14" rx="2"/>
    <text class="ratio" x="968.0" y="496">1.8x</text>
    <line class="rule" x1="48" y1="518" x2="1150" y2="518"/>
    <text class="workload" x="48" y="546">RAR5 (7.23 writer) store single-volume extraction</text>
    <text class="timing" x="48" y="562">31.8 ms -> 17.7 ms</text>
    <rect class="cpu" x="885.0" y="538" width="74.8" height="14" rx="2"/>
    <text class="ratio" x="967.8" y="550">1.8x</text>
    <line class="rule" x1="48" y1="572" x2="1150" y2="572"/>
    <text class="workload" x="48" y="600">RAR3 header-encrypted multi-volume extraction</text>
    <text class="timing" x="48" y="616">105.9 ms -> 59.3 ms</text>
    <rect class="cpu" x="885.0" y="592" width="74.0" height="14" rx="2"/>
    <text class="ratio" x="967.0" y="604">1.8x</text>
    <line class="rule" x1="48" y1="626" x2="1150" y2="626"/>
    <text class="workload" x="48" y="654">RAR5 (5.00 writer) data-encrypted extraction</text>
    <text class="timing" x="48" y="670">61.6 ms -> 35.2 ms</text>
    <rect class="cpu" x="885.0" y="646" width="71.2" height="14" rx="2"/>
    <text class="ratio" x="964.2" y="658">1.7x</text>
    <line class="rule" x1="48" y1="680" x2="1150" y2="680"/>
    <text class="workload" x="48" y="708">RAR4 data-encrypted multi-volume extraction</text>
    <text class="timing" x="48" y="724">75.1 ms -> 45.5 ms</text>
    <rect class="cpu" x="885.0" y="700" width="64.0" height="14" rx="2"/>
    <text class="ratio" x="957.0" y="712">1.7x</text>
    <line class="rule" x1="48" y1="734" x2="1150" y2="734"/>
    <text class="workload" x="48" y="762">RAR3 data-encrypted multi-volume extraction</text>
    <text class="timing" x="48" y="778">74.5 ms -> 45.5 ms</text>
    <rect class="cpu" x="885.0" y="754" width="62.9" height="14" rx="2"/>
    <text class="ratio" x="955.9" y="766">1.6x</text>
    <line class="rule" x1="48" y1="788" x2="1150" y2="788"/>
    <text class="workload" x="48" y="816">RAR5 (5.00 writer) normal single-volume text extraction</text>
    <text class="timing" x="48" y="832">40.1 ms -> 26.4 ms</text>
    <rect class="cpu" x="885.0" y="808" width="53.2" height="14" rx="2"/>
    <text class="ratio" x="946.2" y="820">1.5x</text>
    <line class="rule" x1="48" y1="842" x2="1150" y2="842"/>
    <text class="workload" x="48" y="870">RAR5 (6.24 writer) solid multi-volume text extraction</text>
    <text class="timing" x="48" y="886">39.2 ms -> 25.9 ms</text>
    <rect class="cpu" x="885.0" y="862" width="52.6" height="14" rx="2"/>
    <text class="ratio" x="945.6" y="874">1.5x</text>
    <line class="rule" x1="48" y1="896" x2="1150" y2="896"/>
    <text class="workload" x="48" y="924">RAR5 (5.00 writer) solid multi-volume text extraction</text>
    <text class="timing" x="48" y="940">39.0 ms -> 25.9 ms</text>
    <rect class="cpu" x="885.0" y="916" width="52.4" height="14" rx="2"/>
    <text class="ratio" x="945.4" y="928">1.5x</text>
    <line class="rule" x1="48" y1="950" x2="1150" y2="950"/>
    <text class="workload" x="48" y="978">RAR5 (7.23 writer) normal single-volume text extraction</text>
    <text class="timing" x="48" y="994">38.5 ms -> 25.5 ms</text>
    <rect class="cpu" x="885.0" y="970" width="52.2" height="14" rx="2"/>
    <text class="ratio" x="945.2" y="982">1.5x</text>
    <line class="rule" x1="48" y1="1004" x2="1150" y2="1004"/>
    <text class="workload" x="48" y="1032">RAR5 (7.23 writer) solid multi-volume text extraction</text>
    <text class="timing" x="48" y="1048">39.4 ms -> 26.9 ms</text>
    <rect class="cpu" x="885.0" y="1024" width="48.8" height="14" rx="2"/>
    <text class="ratio" x="941.8" y="1036">1.5x</text>
    <line class="rule" x1="48" y1="1058" x2="1150" y2="1058"/>
    <text class="workload" x="48" y="1086">RAR3 solid multi-volume text extraction</text>
    <text class="timing" x="48" y="1102">41.4 ms -> 30.9 ms</text>
    <rect class="cpu" x="885.0" y="1078" width="37.3" height="14" rx="2"/>
    <text class="ratio" x="930.3" y="1090">1.3x</text>
    <line class="rule" x1="48" y1="1112" x2="1150" y2="1112"/>
    <text class="workload" x="48" y="1140">RAR4 solid multi-volume text extraction</text>
    <text class="timing" x="48" y="1156">41.9 ms -> 31.6 ms</text>
    <rect class="cpu" x="885.0" y="1132" width="36.0" height="14" rx="2"/>
    <text class="ratio" x="929.0" y="1144">1.3x</text>
    <line class="rule" x1="48" y1="1166" x2="1150" y2="1166"/>
    <text class="workload" x="48" y="1194">RAR4 normal single-volume text extraction</text>
    <text class="timing" x="48" y="1210">41.6 ms -> 31.6 ms</text>
    <rect class="cpu" x="885.0" y="1186" width="35.3" height="14" rx="2"/>
    <text class="ratio" x="928.3" y="1198">1.3x</text>
    <line class="rule" x1="48" y1="1220" x2="1150" y2="1220"/>
    <text class="workload" x="48" y="1248">RAR3 normal single-volume text extraction</text>
    <text class="timing" x="48" y="1264">41.4 ms -> 31.5 ms</text>
    <rect class="cpu" x="885.0" y="1240" width="34.6" height="14" rx="2"/>
    <text class="ratio" x="927.6" y="1252">1.3x</text>
    <line class="rule" x1="48" y1="1274" x2="1150" y2="1274"/>
    <text class="workload" x="48" y="1302">RAR4 PPMd classic multi-volume text extraction</text>
    <text class="timing" x="48" y="1318">94.4 ms -> 98.4 ms</text>
    <rect class="slower" x="879.7" y="1294" width="5.3" height="14" rx="2"/>
    <text class="ratio" x="871.7" y="1306" text-anchor="end">1.0x</text>
    <line class="rule" x1="48" y1="1328" x2="1150" y2="1328"/>
    <text class="workload" x="48" y="1356">RAR4 PPMd order-16 32 MiB text extraction</text>
    <text class="timing" x="48" y="1372">9.62 s -> 10.79 s</text>
    <rect class="slower" x="870.4" y="1348" width="14.6" height="14" rx="2"/>
    <text class="ratio" x="862.4" y="1360" text-anchor="end">1.1x</text>
    <line class="rule" x1="48" y1="1382" x2="1150" y2="1382"/>
    <text class="workload" x="48" y="1410">RAR4 PPMd model-restart text extraction</text>
    <text class="timing" x="48" y="1426">377.4 ms -> 488.1 ms</text>
    <rect class="slower" x="852.2" y="1402" width="32.8" height="14" rx="2"/>
    <text class="ratio" x="844.2" y="1414" text-anchor="end">1.3x</text>
    <line class="rule" x1="48" y1="1436" x2="1150" y2="1436"/>
    <text class="workload" x="48" y="1464">RAR4 PPMd solid multi-member text extraction</text>
    <text class="timing" x="48" y="1480">343.2 ms -> 444.5 ms</text>
    <rect class="slower" x="852.1" y="1456" width="32.9" height="14" rx="2"/>
    <text class="ratio" x="844.1" y="1468" text-anchor="end">1.3x</text>
    <line class="rule" x1="48" y1="1490" x2="1150" y2="1490"/>
  </g>
</svg>
