<svg xmlns="http://www.w3.org/2000/svg" width="1200" height="468" viewBox="0 0 1200 468" role="img" aria-labelledby="title desc">
  <title id="title">rarpar PAR2 relative speed benchmark</title>
  <desc id="desc">Measured PAR2 workloads on Apple M5 Max (macOS) across 1 execution lane(s). Relative speed is reference elapsed time divided by rarpar elapsed time.</desc>
  <style>
    .bg { fill: #ffffff; } text { font-family: Arial, sans-serif; fill: #172033; }
    .title { font-size: 28px; font-weight: 600; } .subtitle { font-size: 14px; fill: #667085; }
    .column { font-size: 12px; font-weight: 600; fill: #667085; letter-spacing: .04em; text-transform: uppercase; }
    .machine { font-size: 15px; font-weight: 600; } .workload { font-size: 13px; font-weight: 500; }
    .timing { font-size: 12px; fill: #667085; } .tick { font-size: 11px; fill: #667085; } .ratio { font-size: 12px; font-weight: 600; }
    .grid { stroke: #d7dce5; stroke-width: 1; } .parity { stroke: #172033; stroke-width: 1.5; } .rule { stroke: #e7eaf0; stroke-width: 1; }
    .cpu { fill: #2563eb; } .gpu { fill: #7c3aed; } .slower { fill: #d97706; }
    @media (prefers-color-scheme: dark) { .bg { fill: #0d1117; } text { fill: #e6edf3; } .subtitle, .column, .timing, .tick { fill: #9ca7b5; } .grid { stroke: #30363d; } .parity { stroke: #e6edf3; } .rule { stroke: #21262d; } .cpu { fill: #58a6ff; } .gpu { fill: #bc8cff; } .slower { fill: #f2a65a; } }
  </style>
  <metadata>schema=1; report_sha256=c9dd607ba3090f6cf2897055fd11a08183d085937f547ec2a93f85c744d8015c; corpus_digest=b268ee53e7398cff35b31f6f645106d8f53f943c4889cfd191b0d8712892bf37; plan_id=plan-9600b8d479762d73; candidate_sha256=4271ba1ed2afc590778ffdc157f56c113d2e213f470f97c96cfe55a5443fe35d; reference_sha256=32ab46c2c023acd61af5dcd793aa0059306ea3e9b75df4b21daa2c6546cb2d0d; lane=cpu; par2_placement=canonical</metadata>
  <rect class="bg" width="1200" height="468"/>
  <text class="title" x="48" y="48">rarpar PAR2 relative speed benchmark</text>
  <text class="subtitle" x="48" y="75">Lower elapsed time is better. Bars show the faster side's multiplier on a symmetric log scale.</text>
  <g aria-label="Legend"><rect class="cpu" x="570" y="84" width="14" height="14" rx="2"/><text class="subtitle" x="592" y="96">rarpar / CPU</text><rect class="slower" x="890" y="84" width="14" height="14" rx="2"/><text class="subtitle" x="912" y="96">par2cmdline-turbo faster</text></g>
  <text class="column" x="48" y="112">Workload / elapsed time</text>
  <text class="column" x="620" y="112">Relative speed</text>
  <g aria-label="Relative speed axis">
    <line class="grid" x1="620.0" y1="121" x2="620.0" y2="410"/><text class="tick" x="620.0" y="428" text-anchor="middle">8x</text>
    <line class="grid" x1="708.3" y1="121" x2="708.3" y2="410"/><text class="tick" x="708.3" y="428" text-anchor="middle">4x</text>
    <line class="grid" x1="796.7" y1="121" x2="796.7" y2="410"/><text class="tick" x="796.7" y="428" text-anchor="middle">2x</text>
    <line class="parity" x1="885.0" y1="121" x2="885.0" y2="410"/><text class="tick" x="885.0" y="428" text-anchor="middle">1x parity</text>
    <line class="grid" x1="973.3" y1="121" x2="973.3" y2="410"/><text class="tick" x="973.3" y="428" text-anchor="middle">2x</text>
    <line class="grid" x1="1061.7" y1="121" x2="1061.7" y2="410"/><text class="tick" x="1061.7" y="428" text-anchor="middle">4x</text>
    <line class="grid" x1="1150.0" y1="121" x2="1150.0" y2="410"/><text class="tick" x="1150.0" y="428" text-anchor="middle">8x</text>
    <text class="tick" x="752.5" y="448" text-anchor="middle">par2cmdline-turbo faster</text>
    <text class="tick" x="1017.5" y="448" text-anchor="middle">rarpar faster</text>
  </g>
  <g aria-label="PAR2 benchmarks">
    <text class="machine" x="48" y="140">Apple M5 Max (macOS) / arm64 / cpu / canonical placement</text>
    <text class="workload" x="48" y="168">PAR2 heavy repair with 250 damaged slices</text>
    <text class="timing" x="48" y="184">2.60 s -> 412.9 ms</text>
    <rect class="cpu" x="885.0" y="160" width="234.3" height="14" rx="2"/>
    <text class="ratio" x="1127.3" y="172">6.3x</text>
    <line class="rule" x1="48" y1="194" x2="1150" y2="194"/>
    <text class="workload" x="48" y="222">PAR2 heavy repair with 28 damaged slices</text>
    <text class="timing" x="48" y="238">1.05 s -> 310.6 ms</text>
    <rect class="cpu" x="885.0" y="214" width="154.7" height="14" rx="2"/>
    <text class="ratio" x="1047.7" y="226">3.4x</text>
    <line class="rule" x1="48" y1="248" x2="1150" y2="248"/>
    <text class="workload" x="48" y="276">PAR2 missing-volume repair</text>
    <text class="timing" x="48" y="292">49.2 ms -> 23.7 ms</text>
    <rect class="cpu" x="885.0" y="268" width="92.7" height="14" rx="2"/>
    <text class="ratio" x="985.7" y="280">2.1x</text>
    <line class="rule" x1="48" y1="302" x2="1150" y2="302"/>
    <text class="workload" x="48" y="330">PAR2 byte-damage repair</text>
    <text class="timing" x="48" y="346">49.5 ms -> 21.3 ms</text>
    <rect class="cpu" x="885.0" y="322" width="107.6" height="14" rx="2"/>
    <text class="ratio" x="1000.6" y="334">2.3x</text>
    <line class="rule" x1="48" y1="356" x2="1150" y2="356"/>
    <text class="workload" x="48" y="384">PAR2 verification</text>
    <text class="timing" x="48" y="400">27.9 ms -> 5.9 ms</text>
    <rect class="cpu" x="885.0" y="376" width="198.5" height="14" rx="2"/>
    <text class="ratio" x="1091.5" y="388">4.7x</text>
    <line class="rule" x1="48" y1="410" x2="1150" y2="410"/>
  </g>
</svg>
